<svg viewBox="0 0 1200 630" width="1200" height="630" xmlns="http://www.w3.org/2000/svg">
<g transform="translate(0,-85)"><defs><linearGradient id="a1ttkxias" x1="0" y1="0" x2="0.15" y2="1"><stop offset="100%" stop-color="#8A5A65"/><stop offset="50%" stop-color="#E9A97E"/><stop offset="0%" stop-color="#FBE6CE"/></linearGradient></defs><rect width="1200" height="800" fill="url(#a1ttkxias)"/><linearGradient id="a1ttkxiah" x1="0" y1="0" x2="0" y2="1"><stop offset="0%" stop-color="#FFFFFF" stop-opacity="0"/><stop offset="55%" stop-color="#FFFFFF" stop-opacity="0.13"/><stop offset="100%" stop-color="#FFFFFF" stop-opacity="0"/></linearGradient><rect x="0" y="220" width="1200" height="340" fill="url(#a1ttkxiah)"/><rect x="0" y="470" width="1200" height="330" fill="#C08A73" opacity="0.9"/><rect x="210" y="500" width="617" height="2" fill="#FFFFFF" opacity="0.24"/><rect x="120" y="544" width="194" height="2" fill="#FFFFFF" opacity="0.21"/><rect x="187" y="594" width="558" height="2" fill="#FFFFFF" opacity="0.12"/><rect x="36" y="627" width="364" height="2" fill="#FFFFFF" opacity="0.15"/><rect x="45" y="666" width="503" height="2" fill="#FFFFFF" opacity="0.16"/><rect x="291" y="713" width="438" height="2" fill="#FFFFFF" opacity="0.11"/><rect x="222" y="753" width="592" height="2" fill="#FFFFFF" opacity="0.20"/><path d="M-60 820L-60 325Q6 325 72 268Q138 268 204 228Q270 228 336 242Q402 242 468 307Q534 307 600 346Q666 346 732 353Q798 353 864 322Q930 322 996 283Q1062 283 1128 259Q1194 259 1260 277L1260 820Z" fill="#A57C74"/><path d="M-60 820L-60 488Q6 488 72 438Q138 438 204 416Q270 416 336 440Q402 440 468 474Q534 474 600 504Q666 504 732 506Q798 506 864 493Q930 493 996 453Q1062 453 1128 432Q1194 432 1260 452L1260 820Z" fill="#70565C"/><path d="M-60 820L-60 654Q13 654 87 621Q160 621 233 607Q307 607 380 612Q453 612 527 637Q600 637 673 658Q747 658 820 663Q893 663 967 646Q1040 646 1113 632Q1187 632 1260 616L1260 820Z" fill="#453942"/></g>
<rect width="1200" height="630" fill="#0C0A09" opacity="0.5"/>
<text x="72" y="112" font-family="system-ui,sans-serif" font-size="22" letter-spacing="7" fill="#FCFAF7" opacity="0.85">PEHCHAN</text>
<text x="72" y="152" font-family="system-ui,sans-serif" font-size="20" letter-spacing="3" fill="#FCFAF7" opacity="0.6">COLLECTION</text>
<text x="72" y="330" font-family="Georgia,serif" font-size="66" fill="#FFFFFF">Mid-range</text>
<text x="72" y="566" font-family="system-ui,sans-serif" font-size="21" fill="#FCFAF7" opacity="0.7">Handcrafted journeys. Beautiful stays.</text>
</svg>