<svg viewBox="0 0 1200 630" width="1200" height="630" xmlns="http://www.w3.org/2000/svg">
<g transform="translate(0,-85)"><defs><linearGradient id="avtvi0ss" x1="0" y1="0" x2="0.15" y2="1"><stop offset="100%" stop-color="#48685A"/><stop offset="50%" stop-color="#A6C3B0"/><stop offset="0%" stop-color="#E4EEE6"/></linearGradient></defs><rect width="1200" height="800" fill="url(#avtvi0ss)"/><linearGradient id="avtvi0sh" x1="0" y1="0" x2="0" y2="1"><stop offset="0%" stop-color="#FFFFFF" stop-opacity="0"/><stop offset="55%" stop-color="#FFFFFF" stop-opacity="0.13"/><stop offset="100%" stop-color="#FFFFFF" stop-opacity="0"/></linearGradient><rect x="0" y="220" width="1200" height="340" fill="url(#avtvi0sh)"/><path d="M-60 820L-60 335Q6 335 72 275Q138 275 204 237Q270 237 336 271Q402 271 468 300Q534 300 600 361Q666 361 732 368Q798 368 864 341Q930 341 996 287Q1062 287 1128 257Q1194 257 1260 290L1260 820Z" fill="#7FA189"/><path d="M-60 820L-60 453Q23 453 105 389Q188 389 270 365Q353 365 435 388Q518 388 600 413Q683 413 765 458Q848 458 930 471Q1013 471 1095 451Q1178 451 1260 411L1260 820Z" fill="#4F7161"/><path d="M-60 820L-60 570Q0 570 60 511Q120 511 180 492Q240 492 300 500Q360 500 420 536Q480 536 540 560Q600 560 660 570Q720 570 780 551Q840 551 900 527Q960 527 1020 508Q1080 508 1140 517Q1200 517 1260 558L1260 820Z" fill="#324A40"/><path d="M-60 820L-60 674Q6 674 72 631Q138 631 204 618Q270 618 336 621Q402 621 468 642Q534 642 600 666Q666 666 732 674Q798 674 864 665Q930 665 996 633Q1062 633 1128 627Q1194 627 1260 638L1260 820Z" fill="#1E2D28"/></g>
<rect width="1200" height="630" fill="#0C0A09" opacity="0.5"/>
<text x="72" y="112" font-family="system-ui,sans-serif" font-size="22" letter-spacing="7" fill="#FCFAF7" opacity="0.85">PEHCHAN</text>
<text x="72" y="152" font-family="system-ui,sans-serif" font-size="20" letter-spacing="3" fill="#FCFAF7" opacity="0.6">COLLECTION</text>
<text x="72" y="330" font-family="Georgia,serif" font-size="66" fill="#FFFFFF">Forests</text>
<text x="72" y="566" font-family="system-ui,sans-serif" font-size="21" fill="#FCFAF7" opacity="0.7">Handcrafted journeys. Beautiful stays.</text>
</svg>