<svg viewBox="0 0 1200 630" width="1200" height="630" xmlns="http://www.w3.org/2000/svg">
<g transform="translate(0,-85)"><defs><linearGradient id="a18lrapis" x1="0" y1="0" x2="0.15" y2="1"><stop offset="100%" stop-color="#7A5D72"/><stop offset="50%" stop-color="#E8A87F"/><stop offset="0%" stop-color="#FBE7CE"/></linearGradient></defs><rect width="1200" height="800" fill="url(#a18lrapis)"/><circle cx="835" cy="160" r="48" fill="#FFF3E0" opacity="0.5"/><circle cx="835" cy="160" r="37" fill="#FFF8EC" opacity="0.85"/><linearGradient id="a18lrapih" x1="0" y1="0" x2="0" y2="1"><stop offset="0%" stop-color="#FFFFFF" stop-opacity="0"/><stop offset="55%" stop-color="#FFFFFF" stop-opacity="0.13"/><stop offset="100%" stop-color="#FFFFFF" stop-opacity="0"/></linearGradient><rect x="0" y="220" width="1200" height="340" fill="url(#a18lrapih)"/><path d="M-60 820L-40 390L56 390L72 369L143 369L160 408L215 408L223 440L345 440L362 373L447 373L463 446L510 446L524 357L583 357L597 445L701 445L711 367L806 367L824 423L886 423L896 322L967 322L980 437L1075 437L1084 425L1137 425L1148 384L1194 384L1208 357L1267 357L1260 820Z" fill="#A98577"/><path d="M-60 820L-40 566L45 566L62 521L115 521L130 528L174 528L187 488L239 488L253 512L364 512L375 488L462 488L475 495L525 495L537 534L645 534L661 574L719 574L727 507L844 507L854 506L916 506L926 545L982 545L987 493L1054 493L1066 489L1161 489L1178 498L1293 498L1260 820Z" fill="#77605F"/><path d="M-60 820L-40 694L24 694L30 701L97 701L113 704L166 704L175 710L277 710L294 685L423 685L436 661L510 661L514 671L606 671L623 689L704 689L712 688L810 688L823 711L924 711L934 710L1010 710L1024 660L1132 660L1138 659L1247 659L1260 820Z" fill="#453A40"/></g>
<rect width="1200" height="630" fill="#0C0A09" opacity="0.5"/>
<text x="72" y="112" font-family="system-ui,sans-serif" font-size="22" letter-spacing="7" fill="#FCFAF7" opacity="0.85">PEHCHAN</text>
<text x="72" y="152" font-family="system-ui,sans-serif" font-size="20" letter-spacing="3" fill="#FCFAF7" opacity="0.6">COLLECTION</text>
<text x="72" y="330" font-family="Georgia,serif" font-size="66" fill="#FFFFFF">Cities</text>
<text x="72" y="566" font-family="system-ui,sans-serif" font-size="21" fill="#FCFAF7" opacity="0.7">Handcrafted journeys. Beautiful stays.</text>
</svg>