<svg viewBox="0 0 1200 630" width="1200" height="630" xmlns="http://www.w3.org/2000/svg">
<g transform="translate(0,-85)"><defs><linearGradient id="a48ohj7s" x1="0" y1="0" x2="0.15" y2="1"><stop offset="100%" stop-color="#6B5D5C"/><stop offset="50%" stop-color="#C2AFA4"/><stop offset="0%" stop-color="#EDE6E0"/></linearGradient></defs><rect width="1200" height="800" fill="url(#a48ohj7s)"/><linearGradient id="a48ohj7h" x1="0" y1="0" x2="0" y2="1"><stop offset="0%" stop-color="#FFFFFF" stop-opacity="0"/><stop offset="55%" stop-color="#FFFFFF" stop-opacity="0.13"/><stop offset="100%" stop-color="#FFFFFF" stop-opacity="0"/></linearGradient><rect x="0" y="220" width="1200" height="340" fill="url(#a48ohj7h)"/><path d="M-60 820L-60 412Q34 412 129 244Q223 244 317 397Q411 397 506 232Q600 232 694 375Q789 375 883 228Q977 228 1071 429Q1166 429 1260 248L1260 820Z" fill="#BCA79A"/><linearGradient id="a48ohj7n0" x1="0" y1="185" x2="0" y2="374" gradientUnits="userSpaceOnUse"><stop offset="0%" stop-color="#FFFFFF" stop-opacity="0.78"/><stop offset="70%" stop-color="#FFFFFF" stop-opacity="0.22"/><stop offset="100%" stop-color="#FFFFFF" stop-opacity="0"/></linearGradient><path d="M-60 820L-60 414Q34 414 129 263Q223 263 317 384Q411 384 506 286Q600 286 694 377Q789 377 883 230Q977 230 1071 381Q1166 381 1260 258L1260 820Z" fill="url(#a48ohj7n0)"/><path d="M-60 820L-60 496Q13 496 87 396Q160 396 233 473Q307 473 380 387Q453 387 527 474Q600 474 673 391Q747 391 820 506Q893 506 967 375Q1040 375 1113 501Q1187 501 1260 356L1260 820Z" fill="#8C7A72"/><linearGradient id="a48ohj7n1" x1="0" y1="321" x2="0" y2="475" gradientUnits="userSpaceOnUse"><stop offset="0%" stop-color="#FFFFFF" stop-opacity="0.54"/><stop offset="70%" stop-color="#FFFFFF" stop-opacity="0.12"/><stop offset="100%" stop-color="#FFFFFF" stop-opacity="0"/></linearGradient><path d="M-60 820L-60 475Q13 475 87 362Q160 362 233 491Q307 491 380 383Q453 383 527 521Q600 521 673 360Q747 360 820 517Q893 517 967 365Q1040 365 1113 522Q1187 522 1260 389L1260 820Z" fill="url(#a48ohj7n1)"/><path d="M-60 820L-60 586Q13 586 87 519Q160 519 233 602Q307 602 380 497Q453 497 527 607Q600 607 673 490Q747 490 820 596Q893 596 967 489Q1040 489 1113 576Q1187 576 1260 507L1260 820Z" fill="#5C5150"/><path d="M-60 820L-60 688Q23 688 105 635Q188 635 270 686Q353 686 435 619Q518 619 600 699Q683 699 765 624Q848 624 930 683Q1013 683 1095 623Q1178 623 1260 683L1260 820Z" fill="#332E30"/></g>
<rect width="1200" height="630" fill="#0C0A09" opacity="0.5"/>
<text x="72" y="112" font-family="system-ui,sans-serif" font-size="22" letter-spacing="7" fill="#FCFAF7" opacity="0.85">PEHCHAN</text>
<text x="72" y="152" font-family="system-ui,sans-serif" font-size="20" letter-spacing="3" fill="#FCFAF7" opacity="0.6">INDIA</text>
<text x="72" y="330" font-family="Georgia,serif" font-size="66" fill="#FFFFFF">Kerala Travel Guide</text>
<text x="72" y="566" font-family="system-ui,sans-serif" font-size="21" fill="#FCFAF7" opacity="0.7">Handcrafted journeys. Beautiful stays.</text>
</svg>