<svg viewBox="0 0 1200 630" width="1200" height="630" xmlns="http://www.w3.org/2000/svg">
<g transform="translate(0,-85)"><defs><linearGradient id="a1ljg3kys" x1="0" y1="0" x2="0.15" y2="1"><stop offset="100%" stop-color="#6B5D5C"/><stop offset="50%" stop-color="#C2AFA4"/><stop offset="0%" stop-color="#EDE6E0"/></linearGradient></defs><rect width="1200" height="800" fill="url(#a1ljg3kys)"/><linearGradient id="a1ljg3kyh" x1="0" y1="0" x2="0" y2="1"><stop offset="0%" stop-color="#FFFFFF" stop-opacity="0"/><stop offset="55%" stop-color="#FFFFFF" stop-opacity="0.13"/><stop offset="100%" stop-color="#FFFFFF" stop-opacity="0"/></linearGradient><rect x="0" y="220" width="1200" height="340" fill="url(#a1ljg3kyh)"/><path d="M-60 820L-60 414Q34 414 129 257Q223 257 317 368Q411 368 506 224Q600 224 694 369Q789 369 883 271Q977 271 1071 368Q1166 368 1260 238L1260 820Z" fill="#BCA79A"/><linearGradient id="a1ljg3kyn0" x1="0" y1="185" x2="0" y2="374" gradientUnits="userSpaceOnUse"><stop offset="0%" stop-color="#FFFFFF" stop-opacity="0.78"/><stop offset="70%" stop-color="#FFFFFF" stop-opacity="0.22"/><stop offset="100%" stop-color="#FFFFFF" stop-opacity="0"/></linearGradient><path d="M-60 820L-60 386Q34 386 129 255Q223 255 317 410Q411 410 506 245Q600 245 694 383Q789 383 883 241Q977 241 1071 416Q1166 416 1260 287L1260 820Z" fill="url(#a1ljg3kyn0)"/><path d="M-60 820L-60 498Q23 498 105 394Q188 394 270 493Q353 493 435 372Q518 372 600 483Q683 483 765 365Q848 365 930 520Q1013 520 1095 393Q1178 393 1260 468L1260 820Z" fill="#8C7A72"/><linearGradient id="a1ljg3kyn1" x1="0" y1="321" x2="0" y2="475" gradientUnits="userSpaceOnUse"><stop offset="0%" stop-color="#FFFFFF" stop-opacity="0.54"/><stop offset="70%" stop-color="#FFFFFF" stop-opacity="0.12"/><stop offset="100%" stop-color="#FFFFFF" stop-opacity="0"/></linearGradient><path d="M-60 820L-60 497Q23 497 105 365Q188 365 270 510Q353 510 435 384Q518 384 600 500Q683 500 765 358Q848 358 930 492Q1013 492 1095 367Q1178 367 1260 522L1260 820Z" fill="url(#a1ljg3kyn1)"/><path d="M-60 820L-60 584Q13 584 87 512Q160 512 233 601Q307 601 380 493Q453 493 527 585Q600 585 673 484Q747 484 820 585Q893 585 967 495Q1040 495 1113 595Q1187 595 1260 489L1260 820Z" fill="#5C5150"/><path d="M-60 820L-60 701Q13 701 87 620Q160 620 233 679Q307 679 380 620Q453 620 527 686Q600 686 673 626Q747 626 820 678Q893 678 967 622Q1040 622 1113 700Q1187 700 1260 613L1260 820Z" fill="#332E30"/></g>
<rect width="1200" height="630" fill="#0C0A09" opacity="0.5"/>
<text x="72" y="112" font-family="system-ui,sans-serif" font-size="22" letter-spacing="7" fill="#FCFAF7" opacity="0.85">PEHCHAN</text>
<text x="72" y="152" font-family="system-ui,sans-serif" font-size="20" letter-spacing="3" fill="#FCFAF7" opacity="0.6">INDIA</text>
<text x="72" y="330" font-family="Georgia,serif" font-size="66" fill="#FFFFFF">Meghalaya Travel Guide</text>
<text x="72" y="566" font-family="system-ui,sans-serif" font-size="21" fill="#FCFAF7" opacity="0.7">Handcrafted journeys. Beautiful stays.</text>
</svg>