<svg viewBox="0 0 1200 630" width="1200" height="630" xmlns="http://www.w3.org/2000/svg">
<g transform="translate(0,-85)"><defs><linearGradient id="a263057s" x1="0" y1="0" x2="0.15" y2="1"><stop offset="100%" stop-color="#6B5D5C"/><stop offset="50%" stop-color="#C2AFA4"/><stop offset="0%" stop-color="#EDE6E0"/></linearGradient></defs><rect width="1200" height="800" fill="url(#a263057s)"/><linearGradient id="a263057h" x1="0" y1="0" x2="0" y2="1"><stop offset="0%" stop-color="#FFFFFF" stop-opacity="0"/><stop offset="55%" stop-color="#FFFFFF" stop-opacity="0.13"/><stop offset="100%" stop-color="#FFFFFF" stop-opacity="0"/></linearGradient><rect x="0" y="220" width="1200" height="340" fill="url(#a263057h)"/><path d="M-60 820L-60 416Q23 416 105 278Q188 278 270 393Q353 393 435 254Q518 254 600 387Q683 387 765 250Q848 250 930 413Q1013 413 1095 227Q1178 227 1260 371L1260 820Z" fill="#BCA79A"/><linearGradient id="a263057n0" x1="0" y1="185" x2="0" y2="374" gradientUnits="userSpaceOnUse"><stop offset="0%" stop-color="#FFFFFF" stop-opacity="0.78"/><stop offset="70%" stop-color="#FFFFFF" stop-opacity="0.22"/><stop offset="100%" stop-color="#FFFFFF" stop-opacity="0"/></linearGradient><path d="M-60 820L-60 393Q23 393 105 228Q188 228 270 418Q353 418 435 278Q518 278 600 408Q683 408 765 263Q848 263 930 424Q1013 424 1095 261Q1178 261 1260 418L1260 820Z" fill="url(#a263057n0)"/><path d="M-60 820L-60 474Q34 474 129 402Q223 402 317 500Q411 500 506 398Q600 398 694 510Q789 510 883 371Q977 371 1071 499Q1166 499 1260 360L1260 820Z" fill="#8C7A72"/><linearGradient id="a263057n1" x1="0" y1="321" x2="0" y2="475" gradientUnits="userSpaceOnUse"><stop offset="0%" stop-color="#FFFFFF" stop-opacity="0.54"/><stop offset="70%" stop-color="#FFFFFF" stop-opacity="0.12"/><stop offset="100%" stop-color="#FFFFFF" stop-opacity="0"/></linearGradient><path d="M-60 820L-60 487Q34 487 129 401Q223 401 317 487Q411 487 506 362Q600 362 694 519Q789 519 883 405Q977 405 1071 501Q1166 501 1260 371L1260 820Z" fill="url(#a263057n1)"/><path d="M-60 820L-60 582Q34 582 129 487Q223 487 317 589Q411 589 506 513Q600 513 694 594Q789 594 883 488Q977 488 1071 592Q1166 592 1260 493L1260 820Z" fill="#5C5150"/><path d="M-60 820L-60 700Q34 700 129 620Q223 620 317 682Q411 682 506 634Q600 634 694 700Q789 700 883 610Q977 610 1071 693Q1166 693 1260 625L1260 820Z" fill="#332E30"/></g>
<rect width="1200" height="630" fill="#0C0A09" opacity="0.5"/>
<text x="72" y="112" font-family="system-ui,sans-serif" font-size="22" letter-spacing="7" fill="#FCFAF7" opacity="0.85">PEHCHAN</text>
<text x="72" y="152" font-family="system-ui,sans-serif" font-size="20" letter-spacing="3" fill="#FCFAF7" opacity="0.6">UTTARAKHAND</text>
<text x="72" y="330" font-family="Georgia,serif" font-size="66" fill="#FFFFFF">Uttarkashi Travel Guide</text>
<text x="72" y="566" font-family="system-ui,sans-serif" font-size="21" fill="#FCFAF7" opacity="0.7">Handcrafted journeys. Beautiful stays.</text>
</svg>