<svg viewBox="0 0 1200 630" width="1200" height="630" xmlns="http://www.w3.org/2000/svg">
<g transform="translate(0,-85)"><defs><linearGradient id="akvyo5is" x1="0" y1="0" x2="0.15" y2="1"><stop offset="100%" stop-color="#7E5C6C"/><stop offset="50%" stop-color="#EDAE85"/><stop offset="0%" stop-color="#FBE8D2"/></linearGradient></defs><rect width="1200" height="800" fill="url(#akvyo5is)"/><circle cx="671" cy="175" r="71" fill="#FFF3E0" opacity="0.5"/><circle cx="671" cy="175" r="36" fill="#FFF8EC" opacity="0.85"/><linearGradient id="akvyo5ih" x1="0" y1="0" x2="0" y2="1"><stop offset="0%" stop-color="#FFFFFF" stop-opacity="0"/><stop offset="55%" stop-color="#FFFFFF" stop-opacity="0.13"/><stop offset="100%" stop-color="#FFFFFF" stop-opacity="0"/></linearGradient><rect x="0" y="220" width="1200" height="340" fill="url(#akvyo5ih)"/><rect x="0" y="470" width="1200" height="330" fill="#8A7A88" opacity="0.9"/><rect x="310" y="498" width="405" height="2" fill="#FFFFFF" opacity="0.21"/><rect x="152" y="539" width="256" height="2" fill="#FFFFFF" opacity="0.16"/><rect x="132" y="580" width="251" height="2" fill="#FFFFFF" opacity="0.13"/><rect x="254" y="628" width="430" height="2" fill="#FFFFFF" opacity="0.11"/><rect x="376" y="676" width="330" height="2" fill="#FFFFFF" opacity="0.22"/><rect x="282" y="718" width="598" height="2" fill="#FFFFFF" opacity="0.19"/><rect x="269" y="757" width="353" height="2" fill="#FFFFFF" opacity="0.10"/><path d="M-60 820L-40 335L8 335L19 424L78 424L85 389L185 389L197 323L292 323L299 382L413 382L430 400L521 400L537 319L636 319L650 398L776 398L789 320L918 320L924 360L972 360L984 311L1100 311L1114 421L1212 421L1229 388L1301 388L1260 820Z" fill="#C79881"/><path d="M-60 820L-40 565L2 565L8 532L108 532L125 549L198 549L213 549L299 549L303 557L369 557L381 553L443 553L452 521L567 521L573 477L673 477L689 565L783 565L795 541L867 541L885 571L970 571L988 547L1086 547L1097 523L1184 523L1192 491L1266 491L1260 820Z" fill="#96705F"/><path d="M-60 820L-40 689L3 689L13 653L87 653L95 646L212 646L230 667L271 667L285 661L332 661L338 684L382 684L398 665L475 665L479 650L577 650L594 678L670 678L683 695L786 695L797 676L895 676L901 663L990 663L999 665L1086 665L1101 649L1192 649L1209 669L1291 669L1260 820Z" fill="#5C4440"/><g fill="#2A2027" opacity="0.9"><path d="M 780.9107896909118 613.392478604801 Q 834.9107896909118 483.392478604801 888.9107896909118 613.392478604801 Z"/><rect x="831.9107896909118" y="455.392478604801" width="6" height="32"/></g></g>
<rect width="1200" height="630" fill="#0C0A09" opacity="0.5"/>
<text x="72" y="112" font-family="system-ui,sans-serif" font-size="22" letter-spacing="7" fill="#FCFAF7" opacity="0.85">PEHCHAN</text>
<text x="72" y="152" font-family="system-ui,sans-serif" font-size="20" letter-spacing="3" fill="#FCFAF7" opacity="0.6">MADHYA PRADESH</text>
<text x="72" y="330" font-family="Georgia,serif" font-size="66" fill="#FFFFFF">Ujjain Travel Guide</text>
<text x="72" y="566" font-family="system-ui,sans-serif" font-size="21" fill="#FCFAF7" opacity="0.7">Handcrafted journeys. Beautiful stays.</text>
</svg>