<svg viewBox="0 0 1200 630" width="1200" height="630" xmlns="http://www.w3.org/2000/svg">
<g transform="translate(0,-85)"><defs><linearGradient id="a1p0znmcs" x1="0" y1="0" x2="0.15" y2="1"><stop offset="100%" stop-color="#7B5158"/><stop offset="50%" stop-color="#E39B6F"/><stop offset="0%" stop-color="#FBE0C2"/></linearGradient></defs><rect width="1200" height="800" fill="url(#a1p0znmcs)"/><linearGradient id="a1p0znmch" x1="0" y1="0" x2="0" y2="1"><stop offset="0%" stop-color="#FFFFFF" stop-opacity="0"/><stop offset="55%" stop-color="#FFFFFF" stop-opacity="0.13"/><stop offset="100%" stop-color="#FFFFFF" stop-opacity="0"/></linearGradient><rect x="0" y="220" width="1200" height="340" fill="url(#a1p0znmch)"/><path d="M-60 820L-40 335L2 335L11 323L104 323L118 438L232 438L240 394L355 394L371 346L415 346L431 378L506 378L517 435L611 435L621 418L710 418L715 423L803 423L808 436L862 436L876 381L971 381L979 413L1080 413L1097 392L1220 392L1226 408L1277 408L1260 820Z" fill="#C08A6B"/><path d="M-60 820L-40 565L44 565L58 502L133 502L144 496L228 496L235 576L287 576L293 571L399 571L408 531L535 531L540 573L591 573L608 555L730 555L739 540L797 540L804 579L850 579L864 505L926 505L933 544L984 544L1001 497L1063 497L1071 521L1174 521L1180 521L1241 521L1260 820Z" fill="#96684F"/><path d="M-60 820L-40 654L24 654L35 654L77 654L82 711L161 711L165 683L210 683L217 699L332 699L340 707L429 707L447 675L519 675L534 669L609 669L624 708L748 708L755 680L799 680L816 690L930 690L946 689L1047 689L1054 679L1166 679L1176 713L1265 713L1260 820Z" fill="#5F4335"/><g fill="#2A2027" opacity="0.9"><rect x="1026.5483282133937" y="350.99824549630284" width="34" height="210"/><path d="M 1020.5483282133937 350.99824549630284 L 1043.5483282133937 310.99824549630284 L 1066.5483282133937 350.99824549630284 Z"/></g></g>
<rect width="1200" height="630" fill="#0C0A09" opacity="0.5"/>
<text x="72" y="112" font-family="system-ui,sans-serif" font-size="22" letter-spacing="7" fill="#FCFAF7" opacity="0.85">PEHCHAN</text>
<text x="72" y="152" font-family="system-ui,sans-serif" font-size="20" letter-spacing="3" fill="#FCFAF7" opacity="0.6">MARRAKECH</text>
<text x="72" y="330" font-family="Georgia,serif" font-size="66" fill="#FFFFFF">Souk Craft Trades Walk</text>
<text x="72" y="566" font-family="system-ui,sans-serif" font-size="21" fill="#FCFAF7" opacity="0.7">Handcrafted journeys. Beautiful stays.</text>
</svg>