<svg viewBox="0 0 1200 630" width="1200" height="630" xmlns="http://www.w3.org/2000/svg">
<g transform="translate(0,-85)"><defs><linearGradient id="an5njwes" x1="0" y1="0" x2="0.15" y2="1"><stop offset="100%" stop-color="#7E5C6C"/><stop offset="50%" stop-color="#EDAE85"/><stop offset="0%" stop-color="#FBE8D2"/></linearGradient></defs><rect width="1200" height="800" fill="url(#an5njwes)"/><circle cx="306" cy="256" r="56" fill="#FFF3E0" opacity="0.5"/><circle cx="306" cy="256" r="31" fill="#FFF8EC" opacity="0.85"/><linearGradient id="an5njweh" x1="0" y1="0" x2="0" y2="1"><stop offset="0%" stop-color="#FFFFFF" stop-opacity="0"/><stop offset="55%" stop-color="#FFFFFF" stop-opacity="0.13"/><stop offset="100%" stop-color="#FFFFFF" stop-opacity="0"/></linearGradient><rect x="0" y="220" width="1200" height="340" fill="url(#an5njweh)"/><rect x="0" y="470" width="1200" height="330" fill="#8A7A88" opacity="0.9"/><rect x="1" y="502" width="622" height="2" fill="#FFFFFF" opacity="0.19"/><rect x="231" y="545" width="498" height="2" fill="#FFFFFF" opacity="0.22"/><rect x="69" y="593" width="439" height="2" fill="#FFFFFF" opacity="0.20"/><rect x="387" y="624" width="353" height="2" fill="#FFFFFF" opacity="0.21"/><rect x="306" y="665" width="262" height="2" fill="#FFFFFF" opacity="0.22"/><rect x="52" y="710" width="244" height="2" fill="#FFFFFF" opacity="0.17"/><rect x="113" y="761" width="302" height="2" fill="#FFFFFF" opacity="0.14"/><path d="M-60 820L-40 348L63 348L79 422L175 422L192 365L284 365L289 356L344 356L356 367L448 367L453 408L519 408L530 356L652 356L670 391L781 391L799 350L895 350L909 341L994 341L1012 351L1104 351L1120 373L1183 373L1187 362L1283 362L1260 820Z" fill="#C79881"/><path d="M-60 820L-40 557L79 557L93 497L151 497L168 489L283 489L297 518L379 518L394 517L457 517L471 524L528 524L541 491L668 491L680 551L738 551L751 556L880 556L886 555L948 555L965 522L1084 522L1100 555L1180 555L1197 533L1305 533L1260 820Z" fill="#96705F"/><path d="M-60 820L-40 663L21 663L26 701L121 701L130 693L240 693L255 701L362 701L372 701L449 701L464 643L565 643L579 660L702 660L707 661L821 661L829 652L912 652L917 657L1003 657L1011 667L1138 667L1142 663L1226 663L1260 820Z" fill="#5C4440"/><g fill="#2A2027" opacity="0.9"><path d="M 762.8907205760479 606.1264768941328 Q 816.8907205760479 476.1264768941328 870.8907205760479 606.1264768941328 Z"/><rect x="813.8907205760479" y="448.1264768941328" width="6" height="32"/></g></g>
<rect width="1200" height="630" fill="#0C0A09" opacity="0.5"/>
<text x="72" y="112" font-family="system-ui,sans-serif" font-size="22" letter-spacing="7" fill="#FCFAF7" opacity="0.85">PEHCHAN</text>
<text x="72" y="152" font-family="system-ui,sans-serif" font-size="20" letter-spacing="3" fill="#FCFAF7" opacity="0.6">UDAIPUR</text>
<text x="72" y="330" font-family="Georgia,serif" font-size="66" fill="#FFFFFF">Lake Pichola Sunset Boat</text>
<text x="72" y="566" font-family="system-ui,sans-serif" font-size="21" fill="#FCFAF7" opacity="0.7">Handcrafted journeys. Beautiful stays.</text>
</svg>