<svg viewBox="0 0 1200 630" width="1200" height="630" xmlns="http://www.w3.org/2000/svg">
<g transform="translate(0,-85)"><defs><linearGradient id="a6by79ts" x1="0" y1="0" x2="0.15" y2="1"><stop offset="100%" stop-color="#7A5152"/><stop offset="50%" stop-color="#E4A177"/><stop offset="0%" stop-color="#FCE3C4"/></linearGradient></defs><rect width="1200" height="800" fill="url(#a6by79ts)"/><circle cx="873" cy="278" r="69" fill="#FFF3E0" opacity="0.5"/><circle cx="873" cy="278" r="35" fill="#FFF8EC" opacity="0.85"/><linearGradient id="a6by79th" x1="0" y1="0" x2="0" y2="1"><stop offset="0%" stop-color="#FFFFFF" stop-opacity="0"/><stop offset="55%" stop-color="#FFFFFF" stop-opacity="0.13"/><stop offset="100%" stop-color="#FFFFFF" stop-opacity="0"/></linearGradient><rect x="0" y="220" width="1200" height="340" fill="url(#a6by79th)"/><path d="M-60 820L-60 365L72 283L204 200L336 283L468 283L600 365L732 365L864 365L996 283L1128 283L1260 283L1260 820Z" fill="#CE9068"/><path d="M-60 820L-60 468L60 401L180 333L300 401L420 401L540 468L660 468L780 468L900 401L1020 401L1140 401L1260 468L1260 820Z" fill="#A8714F"/><path d="M-60 820L-60 571L105 519L270 467L435 519L600 519L765 571L930 571L1095 571L1260 519L1260 820Z" fill="#7A5239"/><path d="M-60 820L-60 674L87 637L233 600L380 637L527 637L673 674L820 674L967 674L1113 637L1260 637L1260 820Z" fill="#4A3427"/></g>
<rect width="1200" height="630" fill="#0C0A09" opacity="0.5"/>
<text x="72" y="112" font-family="system-ui,sans-serif" font-size="22" letter-spacing="7" fill="#FCFAF7" opacity="0.85">PEHCHAN</text>
<text x="72" y="152" font-family="system-ui,sans-serif" font-size="20" letter-spacing="3" fill="#FCFAF7" opacity="0.6">ALULA</text>
<text x="72" y="330" font-family="Georgia,serif" font-size="66" fill="#FFFFFF">Hegra with a Rawi Guide</text>
<text x="72" y="566" font-family="system-ui,sans-serif" font-size="21" fill="#FCFAF7" opacity="0.7">Handcrafted journeys. Beautiful stays.</text>
</svg>