<svg viewBox="0 0 1200 630" width="1200" height="630" xmlns="http://www.w3.org/2000/svg">
<g transform="translate(0,-85)"><defs><linearGradient id="a11hsln5s" x1="0" y1="0" x2="0.15" y2="1"><stop offset="100%" stop-color="#5F7A69"/><stop offset="50%" stop-color="#B7CBB0"/><stop offset="0%" stop-color="#E9F0E2"/></linearGradient></defs><rect width="1200" height="800" fill="url(#a11hsln5s)"/><linearGradient id="a11hsln5h" x1="0" y1="0" x2="0" y2="1"><stop offset="0%" stop-color="#FFFFFF" stop-opacity="0"/><stop offset="55%" stop-color="#FFFFFF" stop-opacity="0.13"/><stop offset="100%" stop-color="#FFFFFF" stop-opacity="0"/></linearGradient><rect x="0" y="220" width="1200" height="340" fill="url(#a11hsln5h)"/><path d="M-60 820L-60 352Q0 352 60 267Q120 267 180 239Q240 239 300 250Q360 250 420 307Q480 307 540 356Q600 356 660 367Q720 367 780 347Q840 347 900 294Q960 294 1020 259Q1080 259 1140 286Q1200 286 1260 349L1260 820Z" fill="#8AA790"/><path d="M-60 820L-60 462Q0 462 60 398Q120 398 180 367Q240 367 300 391Q360 391 420 409Q480 409 540 459Q600 459 660 470Q720 470 780 438Q840 438 900 409Q960 409 1020 380Q1080 380 1140 404Q1200 404 1260 470L1260 820Z" fill="#5E7A68"/><path d="M-60 820L-60 570Q23 570 105 508Q188 508 270 490Q353 490 435 498Q518 498 600 535Q683 535 765 565Q848 565 930 573Q1013 573 1095 558Q1178 558 1260 516L1260 820Z" fill="#3C5248"/><path d="M-60 820L-60 664Q23 664 105 630Q188 630 270 617Q353 617 435 622Q518 622 600 651Q683 651 765 665Q848 665 930 675Q1013 675 1095 659Q1178 659 1260 636L1260 820Z" fill="#26332E"/></g>
<rect width="1200" height="630" fill="#0C0A09" opacity="0.5"/>
<text x="72" y="112" font-family="system-ui,sans-serif" font-size="22" letter-spacing="7" fill="#FCFAF7" opacity="0.85">PEHCHAN</text>
<text x="72" y="152" font-family="system-ui,sans-serif" font-size="20" letter-spacing="3" fill="#FCFAF7" opacity="0.6">EXPERIENCES</text>
<text x="72" y="330" font-family="Georgia,serif" font-size="66" fill="#FFFFFF">Nature Experiences</text>
<text x="72" y="566" font-family="system-ui,sans-serif" font-size="21" fill="#FCFAF7" opacity="0.7">Handcrafted journeys. Beautiful stays.</text>
</svg>