<svg viewBox="0 0 1200 630" width="1200" height="630" xmlns="http://www.w3.org/2000/svg">
<g transform="translate(0,-85)"><defs><linearGradient id="adjlyvus" x1="0" y1="0" x2="0.15" y2="1"><stop offset="100%" stop-color="#7A6250"/><stop offset="50%" stop-color="#D5B48D"/><stop offset="0%" stop-color="#F5E9D8"/></linearGradient></defs><rect width="1200" height="800" fill="url(#adjlyvus)"/><linearGradient id="adjlyvuh" x1="0" y1="0" x2="0" y2="1"><stop offset="0%" stop-color="#FFFFFF" stop-opacity="0"/><stop offset="55%" stop-color="#FFFFFF" stop-opacity="0.13"/><stop offset="100%" stop-color="#FFFFFF" stop-opacity="0"/></linearGradient><rect x="0" y="220" width="1200" height="340" fill="url(#adjlyvuh)"/><path d="M-60 820L-60 337Q6 337 72 265Q138 265 204 235Q270 235 336 254Q402 254 468 306Q534 306 600 345Q666 345 732 361Q798 361 864 329Q930 329 996 278Q1062 278 1128 268Q1194 268 1260 282L1260 820Z" fill="#BFA07C"/><path d="M -60 470 Q 300 446 640 464 T 1260 456" stroke="#FFFFFF" stroke-width="1.4" fill="none" opacity="0.16"/><path d="M -60 431 Q 300 407 640 425 T 1260 417" stroke="#FFFFFF" stroke-width="1.4" fill="none" opacity="0.14"/><path d="M -60 392 Q 300 368 640 386 T 1260 378" stroke="#FFFFFF" stroke-width="1.4" fill="none" opacity="0.12"/><path d="M -60 353 Q 300 329 640 347 T 1260 339" stroke="#FFFFFF" stroke-width="1.4" fill="none" opacity="0.10"/><path d="M -60 314 Q 300 290 640 308 T 1260 300" stroke="#FFFFFF" stroke-width="1.4" fill="none" opacity="0.08"/><path d="M-60 820L-60 465Q23 465 105 389Q188 389 270 363Q353 363 435 383Q518 383 600 421Q683 421 765 453Q848 453 930 470Q1013 470 1095 451Q1178 451 1260 397L1260 820Z" fill="#96795C"/><path d="M -60 554 Q 300 530 640 548 T 1260 540" stroke="#FFFFFF" stroke-width="1.4" fill="none" opacity="0.16"/><path d="M -60 522 Q 300 498 640 516 T 1260 508" stroke="#FFFFFF" stroke-width="1.4" fill="none" opacity="0.14"/><path d="M -60 490 Q 300 466 640 484 T 1260 476" stroke="#FFFFFF" stroke-width="1.4" fill="none" opacity="0.12"/><path d="M -60 458 Q 300 434 640 452 T 1260 444" stroke="#FFFFFF" stroke-width="1.4" fill="none" opacity="0.10"/><path d="M -60 426 Q 300 402 640 420 T 1260 412" stroke="#FFFFFF" stroke-width="1.4" fill="none" opacity="0.08"/><path d="M-60 820L-60 563Q23 563 105 512Q188 512 270 493Q353 493 435 510Q518 510 600 543Q683 543 765 567Q848 567 930 569Q1013 569 1095 544Q1178 544 1260 515L1260 820Z" fill="#655040"/><path d="M -60 638 Q 300 614 640 632 T 1260 624" stroke="#FFFFFF" stroke-width="1.4" fill="none" opacity="0.16"/><path d="M -60 613 Q 300 589 640 607 T 1260 599" stroke="#FFFFFF" stroke-width="1.4" fill="none" opacity="0.14"/><path d="M -60 588 Q 300 564 640 582 T 1260 574" stroke="#FFFFFF" stroke-width="1.4" fill="none" opacity="0.12"/><path d="M -60 564 Q 300 540 640 558 T 1260 550" stroke="#FFFFFF" stroke-width="1.4" fill="none" opacity="0.10"/><path d="M -60 539 Q 300 515 640 533 T 1260 525" stroke="#FFFFFF" stroke-width="1.4" fill="none" opacity="0.08"/><path d="M-60 820L-60 669Q6 669 72 632Q138 632 204 616Q270 616 336 627Q402 627 468 648Q534 648 600 672Q666 672 732 675Q798 675 864 661Q930 661 996 644Q1062 644 1128 626Q1194 626 1260 637L1260 820Z" fill="#3A2E26"/><path d="M -60 722 Q 300 698 640 716 T 1260 708" stroke="#FFFFFF" stroke-width="1.4" fill="none" opacity="0.16"/><path d="M -60 704 Q 300 680 640 698 T 1260 690" stroke="#FFFFFF" stroke-width="1.4" fill="none" opacity="0.14"/><path d="M -60 686 Q 300 662 640 680 T 1260 672" stroke="#FFFFFF" stroke-width="1.4" fill="none" opacity="0.12"/><path d="M -60 669 Q 300 645 640 663 T 1260 655" stroke="#FFFFFF" stroke-width="1.4" fill="none" opacity="0.10"/><path d="M -60 651 Q 300 627 640 645 T 1260 637" stroke="#FFFFFF" stroke-width="1.4" fill="none" opacity="0.08"/></g>
<rect width="1200" height="630" fill="#0C0A09" opacity="0.5"/>
<text x="72" y="112" font-family="system-ui,sans-serif" font-size="22" letter-spacing="7" fill="#FCFAF7" opacity="0.85">PEHCHAN</text>
<text x="72" y="152" font-family="system-ui,sans-serif" font-size="20" letter-spacing="3" fill="#FCFAF7" opacity="0.6">CUSCO &amp; THE SACRED VALLEY</text>
<text x="72" y="330" font-family="Georgia,serif" font-size="66" fill="#FFFFFF">Urubamba Valley Hacienda</text>
<text x="72" y="566" font-family="system-ui,sans-serif" font-size="21" fill="#FCFAF7" opacity="0.7">Handcrafted journeys. Beautiful stays.</text>
</svg>