<svg viewBox="0 0 1200 630" width="1200" height="630" xmlns="http://www.w3.org/2000/svg">
<g transform="translate(0,-85)"><defs><linearGradient id="a12826mts" x1="0" y1="0" x2="0.15" y2="1"><stop offset="100%" stop-color="#6E6178"/><stop offset="50%" stop-color="#C6B4C6"/><stop offset="0%" stop-color="#F0E9F0"/></linearGradient></defs><rect width="1200" height="800" fill="url(#a12826mts)"/><linearGradient id="a12826mth" x1="0" y1="0" x2="0" y2="1"><stop offset="0%" stop-color="#FFFFFF" stop-opacity="0"/><stop offset="55%" stop-color="#FFFFFF" stop-opacity="0.13"/><stop offset="100%" stop-color="#FFFFFF" stop-opacity="0"/></linearGradient><rect x="0" y="220" width="1200" height="340" fill="url(#a12826mth)"/><path d="M-60 820L-60 401Q34 401 129 267Q223 267 317 372Q411 372 506 237Q600 237 694 417Q789 417 883 270Q977 270 1071 426Q1166 426 1260 248L1260 820Z" fill="#B3A2AE"/><linearGradient id="a12826mtn0" x1="0" y1="185" x2="0" y2="374" gradientUnits="userSpaceOnUse"><stop offset="0%" stop-color="#FFFFFF" stop-opacity="0.78"/><stop offset="70%" stop-color="#FFFFFF" stop-opacity="0.22"/><stop offset="100%" stop-color="#FFFFFF" stop-opacity="0"/></linearGradient><path d="M-60 820L-60 387Q34 387 129 267Q223 267 317 418Q411 418 506 234Q600 234 694 386Q789 386 883 235Q977 235 1071 370Q1166 370 1260 229L1260 820Z" fill="url(#a12826mtn0)"/><path d="M-60 820L-60 497Q13 497 87 390Q160 390 233 510Q307 510 380 397Q453 397 527 495Q600 495 673 403Q747 403 820 515Q893 515 967 404Q1040 404 1113 472Q1187 472 1260 390L1260 820Z" fill="#7E7186"/><linearGradient id="a12826mtn1" x1="0" y1="321" x2="0" y2="475" gradientUnits="userSpaceOnUse"><stop offset="0%" stop-color="#FFFFFF" stop-opacity="0.54"/><stop offset="70%" stop-color="#FFFFFF" stop-opacity="0.12"/><stop offset="100%" stop-color="#FFFFFF" stop-opacity="0"/></linearGradient><path d="M-60 820L-60 517Q13 517 87 392Q160 392 233 514Q307 514 380 395Q453 395 527 505Q600 505 673 392Q747 392 820 479Q893 479 967 358Q1040 358 1113 487Q1187 487 1260 355L1260 820Z" fill="url(#a12826mtn1)"/><path d="M-60 820L-60 576Q34 576 129 519Q223 519 317 609Q411 609 506 482Q600 482 694 590Q789 590 883 490Q977 490 1071 590Q1166 590 1260 489L1260 820Z" fill="#544B5D"/><path d="M-60 820L-60 703Q13 703 87 623Q160 623 233 686Q307 686 380 633Q453 633 527 699Q600 699 673 639Q747 639 820 694Q893 694 967 638Q1040 638 1113 698Q1187 698 1260 617L1260 820Z" fill="#2E2A36"/></g>
<rect width="1200" height="630" fill="#0C0A09" opacity="0.5"/>
<text x="72" y="112" font-family="system-ui,sans-serif" font-size="22" letter-spacing="7" fill="#FCFAF7" opacity="0.85">PEHCHAN</text>
<text x="72" y="152" font-family="system-ui,sans-serif" font-size="20" letter-spacing="3" fill="#FCFAF7" opacity="0.6">TRAVEL STORY</text>
<text x="72" y="330" font-family="Georgia,serif" font-size="66" fill="#FFFFFF">Nobody Tells You About the</text><text x="72" y="406" font-family="Georgia,serif" font-size="66" fill="#FFFFFF">Wind</text>
<text x="72" y="566" font-family="system-ui,sans-serif" font-size="21" fill="#FCFAF7" opacity="0.7">Handcrafted journeys. Beautiful stays.</text>
</svg>