<svg viewBox="0 0 1200 630" width="1200" height="630" xmlns="http://www.w3.org/2000/svg">
<g transform="translate(0,-85)"><defs><linearGradient id="a2b2xfzs" x1="0" y1="0" x2="0.15" y2="1"><stop offset="100%" stop-color="#7A6250"/><stop offset="50%" stop-color="#D5B48D"/><stop offset="0%" stop-color="#F5E9D8"/></linearGradient></defs><rect width="1200" height="800" fill="url(#a2b2xfzs)"/><linearGradient id="a2b2xfzh" x1="0" y1="0" x2="0" y2="1"><stop offset="0%" stop-color="#FFFFFF" stop-opacity="0"/><stop offset="55%" stop-color="#FFFFFF" stop-opacity="0.13"/><stop offset="100%" stop-color="#FFFFFF" stop-opacity="0"/></linearGradient><rect x="0" y="220" width="1200" height="340" fill="url(#a2b2xfzh)"/><path d="M-60 820L-60 348Q0 348 60 265Q120 265 180 241Q240 241 300 271Q360 271 420 312Q480 312 540 355Q600 355 660 364Q720 364 780 339Q840 339 900 302Q960 302 1020 261Q1080 261 1140 283Q1200 283 1260 368L1260 820Z" fill="#BFA07C"/><path d="M -60 470 Q 300 446 640 464 T 1260 456" stroke="#FFFFFF" stroke-width="1.4" fill="none" opacity="0.16"/><path d="M -60 431 Q 300 407 640 425 T 1260 417" stroke="#FFFFFF" stroke-width="1.4" fill="none" opacity="0.14"/><path d="M -60 392 Q 300 368 640 386 T 1260 378" stroke="#FFFFFF" stroke-width="1.4" fill="none" opacity="0.12"/><path d="M -60 353 Q 300 329 640 347 T 1260 339" stroke="#FFFFFF" stroke-width="1.4" fill="none" opacity="0.10"/><path d="M -60 314 Q 300 290 640 308 T 1260 300" stroke="#FFFFFF" stroke-width="1.4" fill="none" opacity="0.08"/><path d="M-60 820L-60 449Q13 449 87 386Q160 386 233 367Q307 367 380 387Q453 387 527 411Q600 411 673 464Q747 464 820 470Q893 470 967 445Q1040 445 1113 394Q1187 394 1260 382L1260 820Z" fill="#96795C"/><path d="M -60 554 Q 300 530 640 548 T 1260 540" stroke="#FFFFFF" stroke-width="1.4" fill="none" opacity="0.16"/><path d="M -60 522 Q 300 498 640 516 T 1260 508" stroke="#FFFFFF" stroke-width="1.4" fill="none" opacity="0.14"/><path d="M -60 490 Q 300 466 640 484 T 1260 476" stroke="#FFFFFF" stroke-width="1.4" fill="none" opacity="0.12"/><path d="M -60 458 Q 300 434 640 452 T 1260 444" stroke="#FFFFFF" stroke-width="1.4" fill="none" opacity="0.10"/><path d="M -60 426 Q 300 402 640 420 T 1260 412" stroke="#FFFFFF" stroke-width="1.4" fill="none" opacity="0.08"/><path d="M-60 820L-60 564Q23 564 105 514Q188 514 270 491Q353 491 435 504Q518 504 600 544Q683 544 765 568Q848 568 930 573Q1013 573 1095 558Q1178 558 1260 533L1260 820Z" fill="#655040"/><path d="M -60 638 Q 300 614 640 632 T 1260 624" stroke="#FFFFFF" stroke-width="1.4" fill="none" opacity="0.16"/><path d="M -60 613 Q 300 589 640 607 T 1260 599" stroke="#FFFFFF" stroke-width="1.4" fill="none" opacity="0.14"/><path d="M -60 588 Q 300 564 640 582 T 1260 574" stroke="#FFFFFF" stroke-width="1.4" fill="none" opacity="0.12"/><path d="M -60 564 Q 300 540 640 558 T 1260 550" stroke="#FFFFFF" stroke-width="1.4" fill="none" opacity="0.10"/><path d="M -60 539 Q 300 515 640 533 T 1260 525" stroke="#FFFFFF" stroke-width="1.4" fill="none" opacity="0.08"/><path d="M-60 820L-60 670Q6 670 72 629Q138 629 204 617Q270 617 336 624Q402 624 468 654Q534 654 600 672Q666 672 732 673Q798 673 864 667Q930 667 996 638Q1062 638 1128 628Q1194 628 1260 639L1260 820Z" fill="#3A2E26"/><path d="M -60 722 Q 300 698 640 716 T 1260 708" stroke="#FFFFFF" stroke-width="1.4" fill="none" opacity="0.16"/><path d="M -60 704 Q 300 680 640 698 T 1260 690" stroke="#FFFFFF" stroke-width="1.4" fill="none" opacity="0.14"/><path d="M -60 686 Q 300 662 640 680 T 1260 672" stroke="#FFFFFF" stroke-width="1.4" fill="none" opacity="0.12"/><path d="M -60 669 Q 300 645 640 663 T 1260 655" stroke="#FFFFFF" stroke-width="1.4" fill="none" opacity="0.10"/><path d="M -60 651 Q 300 627 640 645 T 1260 637" stroke="#FFFFFF" stroke-width="1.4" fill="none" opacity="0.08"/></g>
<rect width="1200" height="630" fill="#0C0A09" opacity="0.5"/>
<text x="72" y="112" font-family="system-ui,sans-serif" font-size="22" letter-spacing="7" fill="#FCFAF7" opacity="0.85">PEHCHAN</text>
<text x="72" y="152" font-family="system-ui,sans-serif" font-size="20" letter-spacing="3" fill="#FCFAF7" opacity="0.6">FREE TRAVEL TOOL</text>
<text x="72" y="330" font-family="Georgia,serif" font-size="66" fill="#FFFFFF">Visa Information</text>
<text x="72" y="566" font-family="system-ui,sans-serif" font-size="21" fill="#FCFAF7" opacity="0.7">Handcrafted journeys. Beautiful stays.</text>
</svg>